<mxfile host="Electron" modified="2021-12-20T23:16:28.117Z" agent="5.0 (X11; Linux x86_64) AppleWebKit/537.36 (KHTML, like Gecko) draw.io/15.4.0 Chrome/91.0.4472.164 Electron/13.5.0 Safari/537.36" etag="bYyM5H8VeH6qyo0DgrwB" compressed="false" version="15.4.0" type="device" pages="2">
  <diagram id="QzFfrfH8SN4-rbbLNKeJ" name="Data Pipeline">
    <mxGraphModel dx="642" dy="487" grid="1" gridSize="10" guides="1" tooltips="1" connect="1" arrows="1" fold="1" page="1" pageScale="1" pageWidth="850" pageHeight="1100" math="0" shadow="0">
      <root>
        <mxCell id="0" />
        <mxCell id="1" parent="0" />
        <mxCell id="GSpiW1t5uOvLDVTzn9EM-5" value="Application" style="rounded=1;whiteSpace=wrap;html=1;fillColor=none;verticalAlign=top;" parent="1" vertex="1">
          <mxGeometry x="265" y="40" width="290" height="440" as="geometry" />
        </mxCell>
        <mxCell id="GSpiW1t5uOvLDVTzn9EM-3" style="edgeStyle=orthogonalEdgeStyle;rounded=0;orthogonalLoop=1;jettySize=auto;html=1;exitX=0.25;exitY=0;exitDx=0;exitDy=0;entryX=0.75;entryY=1;entryDx=0;entryDy=0;" parent="1" source="GSpiW1t5uOvLDVTzn9EM-2" target="GSpiW1t5uOvLDVTzn9EM-15" edge="1">
          <mxGeometry relative="1" as="geometry">
            <mxPoint x="380" y="470" as="targetPoint" />
          </mxGeometry>
        </mxCell>
        <mxCell id="GSpiW1t5uOvLDVTzn9EM-8" value="C2_PM_WRITE" style="edgeLabel;html=1;align=center;verticalAlign=middle;resizable=0;points=[];" parent="GSpiW1t5uOvLDVTzn9EM-3" vertex="1" connectable="0">
          <mxGeometry x="-0.3477" relative="1" as="geometry">
            <mxPoint x="-10" y="-3" as="offset" />
          </mxGeometry>
        </mxCell>
        <mxCell id="GSpiW1t5uOvLDVTzn9EM-6" style="edgeStyle=orthogonalEdgeStyle;rounded=0;orthogonalLoop=1;jettySize=auto;html=1;entryX=0.75;entryY=0;entryDx=0;entryDy=0;exitX=0.277;exitY=1;exitDx=0;exitDy=0;exitPerimeter=0;" parent="1" source="GSpiW1t5uOvLDVTzn9EM-16" target="GSpiW1t5uOvLDVTzn9EM-2" edge="1">
          <mxGeometry relative="1" as="geometry">
            <mxPoint x="440" y="640" as="targetPoint" />
            <mxPoint x="440" y="470" as="sourcePoint" />
          </mxGeometry>
        </mxCell>
        <mxCell id="GSpiW1t5uOvLDVTzn9EM-7" value="C2_PM_READ" style="edgeLabel;html=1;align=center;verticalAlign=middle;resizable=0;points=[];" parent="GSpiW1t5uOvLDVTzn9EM-6" vertex="1" connectable="0">
          <mxGeometry x="0.3012" relative="1" as="geometry">
            <mxPoint x="10" y="-3" as="offset" />
          </mxGeometry>
        </mxCell>
        <mxCell id="GSpiW1t5uOvLDVTzn9EM-2" value="PM5" style="rounded=0;whiteSpace=wrap;html=1;" parent="1" vertex="1">
          <mxGeometry x="350" y="510" width="120" height="60" as="geometry" />
        </mxCell>
        <mxCell id="GSpiW1t5uOvLDVTzn9EM-4" value="csafe-fitness" style="rounded=1;whiteSpace=wrap;html=1;verticalAlign=top;" parent="1" vertex="1">
          <mxGeometry x="270" y="120" width="280" height="290" as="geometry" />
        </mxCell>
        <mxCell id="GSpiW1t5uOvLDVTzn9EM-11" style="edgeStyle=orthogonalEdgeStyle;rounded=0;orthogonalLoop=1;jettySize=auto;html=1;entryX=0.5;entryY=0;entryDx=0;entryDy=0;" parent="1" target="GSpiW1t5uOvLDVTzn9EM-4" edge="1">
          <mxGeometry relative="1" as="geometry">
            <mxPoint x="440" y="340.0000000000001" as="targetPoint" />
            <mxPoint x="410" y="60" as="sourcePoint" />
            <Array as="points">
              <mxPoint x="410" y="70" />
              <mxPoint x="410" y="70" />
            </Array>
          </mxGeometry>
        </mxCell>
        <mxCell id="GSpiW1t5uOvLDVTzn9EM-13" value="sendCommand(Command): Future&amp;lt;CommandResponse | CommandError&amp;gt;" style="edgeLabel;html=1;align=center;verticalAlign=middle;resizable=0;points=[];" parent="GSpiW1t5uOvLDVTzn9EM-11" vertex="1" connectable="0">
          <mxGeometry x="-0.208" y="1" relative="1" as="geometry">
            <mxPoint x="4" as="offset" />
          </mxGeometry>
        </mxCell>
        <mxCell id="GSpiW1t5uOvLDVTzn9EM-28" style="edgeStyle=orthogonalEdgeStyle;rounded=0;orthogonalLoop=1;jettySize=auto;html=1;exitX=0.5;exitY=0;exitDx=0;exitDy=0;entryX=0.5;entryY=1;entryDx=0;entryDy=0;" parent="1" source="GSpiW1t5uOvLDVTzn9EM-15" target="GSpiW1t5uOvLDVTzn9EM-22" edge="1">
          <mxGeometry relative="1" as="geometry" />
        </mxCell>
        <mxCell id="GSpiW1t5uOvLDVTzn9EM-15" value="read()" style="rounded=1;whiteSpace=wrap;html=1;" parent="1" vertex="1">
          <mxGeometry x="320" y="430" width="80" height="30" as="geometry" />
        </mxCell>
        <mxCell id="GSpiW1t5uOvLDVTzn9EM-16" value="write()" style="rounded=1;whiteSpace=wrap;html=1;" parent="1" vertex="1">
          <mxGeometry x="414" y="430" width="93" height="30" as="geometry" />
        </mxCell>
        <mxCell id="GSpiW1t5uOvLDVTzn9EM-37" style="edgeStyle=orthogonalEdgeStyle;rounded=0;orthogonalLoop=1;jettySize=auto;html=1;exitX=0.25;exitY=0;exitDx=0;exitDy=0;entryX=0.5;entryY=1;entryDx=0;entryDy=0;" parent="1" source="GSpiW1t5uOvLDVTzn9EM-22" target="GSpiW1t5uOvLDVTzn9EM-33" edge="1">
          <mxGeometry relative="1" as="geometry">
            <mxPoint x="338" y="350" as="targetPoint" />
          </mxGeometry>
        </mxCell>
        <mxCell id="GSpiW1t5uOvLDVTzn9EM-22" value="Frame.decode()" style="rounded=1;whiteSpace=wrap;html=1;" parent="1" vertex="1">
          <mxGeometry x="315" y="380" width="90" height="20" as="geometry" />
        </mxCell>
        <mxCell id="GSpiW1t5uOvLDVTzn9EM-31" style="edgeStyle=orthogonalEdgeStyle;rounded=0;orthogonalLoop=1;jettySize=auto;html=1;exitX=0.5;exitY=1;exitDx=0;exitDy=0;entryX=0.5;entryY=0;entryDx=0;entryDy=0;" parent="1" source="GSpiW1t5uOvLDVTzn9EM-27" target="GSpiW1t5uOvLDVTzn9EM-16" edge="1">
          <mxGeometry relative="1" as="geometry" />
        </mxCell>
        <mxCell id="GSpiW1t5uOvLDVTzn9EM-27" value="Frame.encode()" style="rounded=1;whiteSpace=wrap;html=1;" parent="1" vertex="1">
          <mxGeometry x="415.25" y="380" width="90.5" height="20" as="geometry" />
        </mxCell>
        <mxCell id="GSpiW1t5uOvLDVTzn9EM-48" style="edgeStyle=orthogonalEdgeStyle;rounded=0;orthogonalLoop=1;jettySize=auto;html=1;exitX=0.5;exitY=0;exitDx=0;exitDy=0;entryX=0.5;entryY=1;entryDx=0;entryDy=0;" parent="1" source="GSpiW1t5uOvLDVTzn9EM-33" target="GSpiW1t5uOvLDVTzn9EM-52" edge="1">
          <mxGeometry relative="1" as="geometry">
            <mxPoint x="337" y="320" as="targetPoint" />
          </mxGeometry>
        </mxCell>
        <mxCell id="GSpiW1t5uOvLDVTzn9EM-33" value="Response.fromBytes()" style="rounded=1;whiteSpace=wrap;html=1;" parent="1" vertex="1">
          <mxGeometry x="275" y="340" width="125" height="20" as="geometry" />
        </mxCell>
        <mxCell id="GSpiW1t5uOvLDVTzn9EM-35" style="edgeStyle=orthogonalEdgeStyle;rounded=0;orthogonalLoop=1;jettySize=auto;html=1;exitX=0.5;exitY=1;exitDx=0;exitDy=0;entryX=0.75;entryY=0;entryDx=0;entryDy=0;startArrow=none;" parent="1" source="4iEgsA07tlJp5t5wtMla-1" target="GSpiW1t5uOvLDVTzn9EM-27" edge="1">
          <mxGeometry relative="1" as="geometry" />
        </mxCell>
        <mxCell id="GSpiW1t5uOvLDVTzn9EM-34" value="Frame.fromCommand()" style="rounded=1;whiteSpace=wrap;html=1;" parent="1" vertex="1">
          <mxGeometry x="414.5" y="280" width="125" height="20" as="geometry" />
        </mxCell>
        <mxCell id="GSpiW1t5uOvLDVTzn9EM-38" value="Pending Command List" style="rounded=1;whiteSpace=wrap;html=1;fillColor=none;align=center;verticalAlign=top;" parent="1" vertex="1">
          <mxGeometry x="279.5" y="190" width="260" height="50" as="geometry" />
        </mxCell>
        <mxCell id="GSpiW1t5uOvLDVTzn9EM-49" style="edgeStyle=orthogonalEdgeStyle;rounded=0;orthogonalLoop=1;jettySize=auto;html=1;exitX=0.5;exitY=0;exitDx=0;exitDy=0;entryX=0.5;entryY=1;entryDx=0;entryDy=0;" parent="1" source="GSpiW1t5uOvLDVTzn9EM-39" target="GSpiW1t5uOvLDVTzn9EM-42" edge="1">
          <mxGeometry relative="1" as="geometry" />
        </mxCell>
        <mxCell id="GSpiW1t5uOvLDVTzn9EM-39" value="lookup()" style="rounded=1;whiteSpace=wrap;html=1;" parent="1" vertex="1">
          <mxGeometry x="289.5" y="210" width="121" height="20" as="geometry" />
        </mxCell>
        <mxCell id="GSpiW1t5uOvLDVTzn9EM-45" style="edgeStyle=orthogonalEdgeStyle;rounded=0;orthogonalLoop=1;jettySize=auto;html=1;exitX=0.5;exitY=1;exitDx=0;exitDy=0;entryX=0.5;entryY=0;entryDx=0;entryDy=0;" parent="1" source="GSpiW1t5uOvLDVTzn9EM-40" target="GSpiW1t5uOvLDVTzn9EM-34" edge="1">
          <mxGeometry relative="1" as="geometry" />
        </mxCell>
        <mxCell id="GSpiW1t5uOvLDVTzn9EM-40" value="store()" style="rounded=1;whiteSpace=wrap;html=1;" parent="1" vertex="1">
          <mxGeometry x="414.5" y="210" width="116" height="20" as="geometry" />
        </mxCell>
        <mxCell id="GSpiW1t5uOvLDVTzn9EM-44" style="edgeStyle=orthogonalEdgeStyle;rounded=0;orthogonalLoop=1;jettySize=auto;html=1;exitX=0.5;exitY=1;exitDx=0;exitDy=0;entryX=0.5;entryY=0;entryDx=0;entryDy=0;" parent="1" source="GSpiW1t5uOvLDVTzn9EM-41" target="GSpiW1t5uOvLDVTzn9EM-40" edge="1">
          <mxGeometry relative="1" as="geometry" />
        </mxCell>
        <mxCell id="GSpiW1t5uOvLDVTzn9EM-41" value="createFuture()" style="rounded=1;whiteSpace=wrap;html=1;" parent="1" vertex="1">
          <mxGeometry x="414.5" y="160" width="116" height="20" as="geometry" />
        </mxCell>
        <mxCell id="GSpiW1t5uOvLDVTzn9EM-42" value="resolveFuture()" style="rounded=1;whiteSpace=wrap;html=1;" parent="1" vertex="1">
          <mxGeometry x="289.5" y="160" width="116" height="20" as="geometry" />
        </mxCell>
        <mxCell id="GSpiW1t5uOvLDVTzn9EM-47" style="edgeStyle=orthogonalEdgeStyle;rounded=0;orthogonalLoop=1;jettySize=auto;html=1;entryX=0.5;entryY=0;entryDx=0;entryDy=0;exitX=0.5;exitY=0;exitDx=0;exitDy=0;" parent="1" source="GSpiW1t5uOvLDVTzn9EM-4" target="GSpiW1t5uOvLDVTzn9EM-41" edge="1">
          <mxGeometry relative="1" as="geometry">
            <mxPoint x="580" y="120" as="sourcePoint" />
            <Array as="points">
              <mxPoint x="473" y="120" />
              <mxPoint x="473" y="150" />
            </Array>
          </mxGeometry>
        </mxCell>
        <mxCell id="GSpiW1t5uOvLDVTzn9EM-56" style="edgeStyle=orthogonalEdgeStyle;rounded=0;orthogonalLoop=1;jettySize=auto;html=1;exitX=1;exitY=0.5;exitDx=0;exitDy=0;entryX=0.5;entryY=1;entryDx=0;entryDy=0;" parent="1" source="GSpiW1t5uOvLDVTzn9EM-52" target="GSpiW1t5uOvLDVTzn9EM-55" edge="1">
          <mxGeometry relative="1" as="geometry" />
        </mxCell>
        <mxCell id="GSpiW1t5uOvLDVTzn9EM-57" style="edgeStyle=orthogonalEdgeStyle;rounded=0;orthogonalLoop=1;jettySize=auto;html=1;exitX=0;exitY=0.5;exitDx=0;exitDy=0;entryX=0.25;entryY=1;entryDx=0;entryDy=0;" parent="1" source="GSpiW1t5uOvLDVTzn9EM-52" target="GSpiW1t5uOvLDVTzn9EM-54" edge="1">
          <mxGeometry relative="1" as="geometry" />
        </mxCell>
        <mxCell id="GSpiW1t5uOvLDVTzn9EM-52" value="validate" style="rounded=1;whiteSpace=wrap;html=1;" parent="1" vertex="1">
          <mxGeometry x="305" y="300" width="65" height="20" as="geometry" />
        </mxCell>
        <mxCell id="GSpiW1t5uOvLDVTzn9EM-58" style="edgeStyle=orthogonalEdgeStyle;rounded=0;orthogonalLoop=1;jettySize=auto;html=1;exitX=0.5;exitY=0;exitDx=0;exitDy=0;entryX=0.5;entryY=1;entryDx=0;entryDy=0;" parent="1" source="GSpiW1t5uOvLDVTzn9EM-54" target="GSpiW1t5uOvLDVTzn9EM-39" edge="1">
          <mxGeometry relative="1" as="geometry" />
        </mxCell>
        <mxCell id="GSpiW1t5uOvLDVTzn9EM-54" value="Response" style="rounded=1;whiteSpace=wrap;html=1;" parent="1" vertex="1">
          <mxGeometry x="275" y="270" width="65" height="20" as="geometry" />
        </mxCell>
        <mxCell id="GSpiW1t5uOvLDVTzn9EM-59" style="edgeStyle=orthogonalEdgeStyle;rounded=0;orthogonalLoop=1;jettySize=auto;html=1;exitX=0.5;exitY=0;exitDx=0;exitDy=0;entryX=0.5;entryY=1;entryDx=0;entryDy=0;" parent="1" source="GSpiW1t5uOvLDVTzn9EM-55" target="GSpiW1t5uOvLDVTzn9EM-39" edge="1">
          <mxGeometry relative="1" as="geometry" />
        </mxCell>
        <mxCell id="GSpiW1t5uOvLDVTzn9EM-55" value="Error" style="rounded=1;whiteSpace=wrap;html=1;" parent="1" vertex="1">
          <mxGeometry x="345.5" y="270" width="65" height="20" as="geometry" />
        </mxCell>
        <mxCell id="4iEgsA07tlJp5t5wtMla-1" value="Frame.toBytes()" style="rounded=1;whiteSpace=wrap;html=1;" parent="1" vertex="1">
          <mxGeometry x="410" y="330" width="129.5" height="20" as="geometry" />
        </mxCell>
        <mxCell id="4iEgsA07tlJp5t5wtMla-2" value="" style="edgeStyle=orthogonalEdgeStyle;rounded=0;orthogonalLoop=1;jettySize=auto;html=1;exitX=0.5;exitY=1;exitDx=0;exitDy=0;entryX=0.75;entryY=0;entryDx=0;entryDy=0;endArrow=none;" parent="1" source="GSpiW1t5uOvLDVTzn9EM-34" target="4iEgsA07tlJp5t5wtMla-1" edge="1">
          <mxGeometry relative="1" as="geometry">
            <mxPoint x="477" y="300" as="sourcePoint" />
            <mxPoint x="483.125" y="380" as="targetPoint" />
          </mxGeometry>
        </mxCell>
      </root>
    </mxGraphModel>
  </diagram>
  <diagram id="GpjIZcvcE7IxfQtb7eGF" name="Command Lifecycle">
    <mxGraphModel dx="1330" dy="1009" grid="1" gridSize="10" guides="1" tooltips="1" connect="1" arrows="1" fold="1" page="1" pageScale="1" pageWidth="850" pageHeight="1100" math="0" shadow="0">
      <root>
        <mxCell id="N9EPF0uowiHp0taxYQrZ-0" />
        <mxCell id="N9EPF0uowiHp0taxYQrZ-1" parent="N9EPF0uowiHp0taxYQrZ-0" />
        <mxCell id="8HQ3DXFYilquQqbcVB3s-11" value="&lt;meta charset=&quot;utf-8&quot;&gt;&lt;span style=&quot;color: rgb(0, 0, 0); font-family: helvetica; font-size: 12px; font-style: normal; font-weight: 400; letter-spacing: normal; text-align: center; text-indent: 0px; text-transform: none; word-spacing: 0px; background-color: rgb(248, 249, 250); display: inline; float: none;&quot;&gt;build/create()&lt;/span&gt;" style="edgeStyle=orthogonalEdgeStyle;rounded=0;orthogonalLoop=1;jettySize=auto;html=1;exitX=1;exitY=0.5;exitDx=0;exitDy=0;entryX=0;entryY=0.5;entryDx=0;entryDy=0;" edge="1" parent="N9EPF0uowiHp0taxYQrZ-1" source="N9EPF0uowiHp0taxYQrZ-2" target="8HQ3DXFYilquQqbcVB3s-5">
          <mxGeometry relative="1" as="geometry">
            <mxPoint x="390" y="65" as="targetPoint" />
          </mxGeometry>
        </mxCell>
        <mxCell id="N9EPF0uowiHp0taxYQrZ-2" value="CsafeShortCommandFactory" style="rounded=1;whiteSpace=wrap;html=1;fillColor=none;align=center;verticalAlign=middle;" parent="N9EPF0uowiHp0taxYQrZ-1" vertex="1">
          <mxGeometry x="10" y="35" width="180" height="60" as="geometry" />
        </mxCell>
        <mxCell id="8HQ3DXFYilquQqbcVB3s-9" value="" style="edgeStyle=orthogonalEdgeStyle;rounded=0;orthogonalLoop=1;jettySize=auto;html=1;exitX=1;exitY=0.5;exitDx=0;exitDy=0;" edge="1" parent="N9EPF0uowiHp0taxYQrZ-1" source="8HQ3DXFYilquQqbcVB3s-27" target="8HQ3DXFYilquQqbcVB3s-8">
          <mxGeometry relative="1" as="geometry">
            <mxPoint x="1020" y="260" as="sourcePoint" />
          </mxGeometry>
        </mxCell>
        <mxCell id="8HQ3DXFYilquQqbcVB3s-12" style="edgeStyle=orthogonalEdgeStyle;rounded=0;orthogonalLoop=1;jettySize=auto;html=1;exitX=1;exitY=0.5;exitDx=0;exitDy=0;entryX=0;entryY=0.5;entryDx=0;entryDy=0;" edge="1" parent="N9EPF0uowiHp0taxYQrZ-1" source="fC-9AGT-STw9Ydtaq8Hk-4" target="fC-9AGT-STw9Ydtaq8Hk-5">
          <mxGeometry relative="1" as="geometry" />
        </mxCell>
        <mxCell id="fC-9AGT-STw9Ydtaq8Hk-4" value="receive" style="rounded=1;whiteSpace=wrap;html=1;fillColor=none;align=center;verticalAlign=middle;" vertex="1" parent="N9EPF0uowiHp0taxYQrZ-1">
          <mxGeometry x="1170" y="230" width="50" height="60" as="geometry" />
        </mxCell>
        <mxCell id="8HQ3DXFYilquQqbcVB3s-15" value="ok" style="edgeStyle=orthogonalEdgeStyle;rounded=0;orthogonalLoop=1;jettySize=auto;html=1;" edge="1" parent="N9EPF0uowiHp0taxYQrZ-1" source="fC-9AGT-STw9Ydtaq8Hk-5" target="8HQ3DXFYilquQqbcVB3s-14">
          <mxGeometry relative="1" as="geometry" />
        </mxCell>
        <mxCell id="T2_0Uxq5rlbPieXqFF-1-11" value="bad crc" style="edgeStyle=orthogonalEdgeStyle;rounded=0;orthogonalLoop=1;jettySize=auto;html=1;exitX=0.5;exitY=1;exitDx=0;exitDy=0;" edge="1" parent="N9EPF0uowiHp0taxYQrZ-1" source="fC-9AGT-STw9Ydtaq8Hk-5" target="T2_0Uxq5rlbPieXqFF-1-12">
          <mxGeometry relative="1" as="geometry">
            <mxPoint x="1290" y="330" as="targetPoint" />
          </mxGeometry>
        </mxCell>
        <mxCell id="fC-9AGT-STw9Ydtaq8Hk-5" value="deframe and check CRC" style="rounded=1;whiteSpace=wrap;html=1;fillColor=none;align=center;verticalAlign=middle;" vertex="1" parent="N9EPF0uowiHp0taxYQrZ-1">
          <mxGeometry x="1250" y="230" width="80" height="60" as="geometry" />
        </mxCell>
        <mxCell id="8HQ3DXFYilquQqbcVB3s-22" style="edgeStyle=orthogonalEdgeStyle;rounded=0;orthogonalLoop=1;jettySize=auto;html=1;exitX=1;exitY=0.25;exitDx=0;exitDy=0;entryX=0;entryY=0.5;entryDx=0;entryDy=0;" edge="1" parent="N9EPF0uowiHp0taxYQrZ-1" source="fC-9AGT-STw9Ydtaq8Hk-7" target="8HQ3DXFYilquQqbcVB3s-47">
          <mxGeometry relative="1" as="geometry">
            <mxPoint x="1740.0000000000002" y="245.09523809523807" as="targetPoint" />
          </mxGeometry>
        </mxCell>
        <mxCell id="8HQ3DXFYilquQqbcVB3s-23" value="matches" style="edgeLabel;html=1;align=center;verticalAlign=middle;resizable=0;points=[];" vertex="1" connectable="0" parent="8HQ3DXFYilquQqbcVB3s-22">
          <mxGeometry x="-0.1981" y="1" relative="1" as="geometry">
            <mxPoint as="offset" />
          </mxGeometry>
        </mxCell>
        <mxCell id="8HQ3DXFYilquQqbcVB3s-46" value="doesnt match" style="edgeStyle=orthogonalEdgeStyle;rounded=0;orthogonalLoop=1;jettySize=auto;html=1;exitX=1;exitY=0.75;exitDx=0;exitDy=0;entryX=0;entryY=0.5;entryDx=0;entryDy=0;" edge="1" parent="N9EPF0uowiHp0taxYQrZ-1" source="fC-9AGT-STw9Ydtaq8Hk-7" target="8HQ3DXFYilquQqbcVB3s-53">
          <mxGeometry relative="1" as="geometry">
            <mxPoint x="1760" y="340" as="targetPoint" />
          </mxGeometry>
        </mxCell>
        <mxCell id="fC-9AGT-STw9Ydtaq8Hk-7" value="see if it corresponds with the commandFrame in the queue" style="rounded=1;whiteSpace=wrap;html=1;fillColor=none;align=center;verticalAlign=middle;" vertex="1" parent="N9EPF0uowiHp0taxYQrZ-1">
          <mxGeometry x="1580" y="220" width="100" height="80" as="geometry" />
        </mxCell>
        <mxCell id="8HQ3DXFYilquQqbcVB3s-31" style="edgeStyle=orthogonalEdgeStyle;rounded=0;orthogonalLoop=1;jettySize=auto;html=1;entryX=0;entryY=0.25;entryDx=0;entryDy=0;exitX=1;exitY=0.5;exitDx=0;exitDy=0;" edge="1" parent="N9EPF0uowiHp0taxYQrZ-1" source="8HQ3DXFYilquQqbcVB3s-43" target="8HQ3DXFYilquQqbcVB3s-29">
          <mxGeometry relative="1" as="geometry">
            <mxPoint x="760" y="210" as="sourcePoint" />
            <Array as="points">
              <mxPoint x="650" y="260" />
              <mxPoint x="650" y="155" />
            </Array>
          </mxGeometry>
        </mxCell>
        <mxCell id="8HQ3DXFYilquQqbcVB3s-5" value="make&amp;nbsp;&lt;span&gt;CsafeCommand&lt;/span&gt;" style="rounded=1;whiteSpace=wrap;html=1;fillColor=none;align=center;verticalAlign=middle;" vertex="1" parent="N9EPF0uowiHp0taxYQrZ-1">
          <mxGeometry x="400" y="35" width="130" height="60" as="geometry" />
        </mxCell>
        <mxCell id="8HQ3DXFYilquQqbcVB3s-8" value="transmit" style="rounded=1;whiteSpace=wrap;html=1;fillColor=none;align=center;verticalAlign=middle;" vertex="1" parent="N9EPF0uowiHp0taxYQrZ-1">
          <mxGeometry x="1090" y="230" width="50" height="60" as="geometry" />
        </mxCell>
        <mxCell id="8HQ3DXFYilquQqbcVB3s-13" value="..." style="text;html=1;align=center;verticalAlign=middle;resizable=0;points=[];autosize=1;strokeColor=none;fillColor=none;" vertex="1" parent="N9EPF0uowiHp0taxYQrZ-1">
          <mxGeometry x="1140" y="250" width="30" height="20" as="geometry" />
        </mxCell>
        <mxCell id="8HQ3DXFYilquQqbcVB3s-18" value="" style="edgeStyle=orthogonalEdgeStyle;rounded=0;orthogonalLoop=1;jettySize=auto;html=1;" edge="1" parent="N9EPF0uowiHp0taxYQrZ-1" source="8HQ3DXFYilquQqbcVB3s-14" target="8HQ3DXFYilquQqbcVB3s-17">
          <mxGeometry relative="1" as="geometry" />
        </mxCell>
        <mxCell id="T2_0Uxq5rlbPieXqFF-1-0" value="ok" style="edgeLabel;html=1;align=center;verticalAlign=middle;resizable=0;points=[];" vertex="1" connectable="0" parent="8HQ3DXFYilquQqbcVB3s-18">
          <mxGeometry x="-0.7667" relative="1" as="geometry">
            <mxPoint x="4" as="offset" />
          </mxGeometry>
        </mxCell>
        <mxCell id="T2_0Uxq5rlbPieXqFF-1-1" style="edgeStyle=orthogonalEdgeStyle;rounded=0;orthogonalLoop=1;jettySize=auto;html=1;exitX=0.75;exitY=1;exitDx=0;exitDy=0;entryX=0.25;entryY=0;entryDx=0;entryDy=0;" edge="1" parent="N9EPF0uowiHp0taxYQrZ-1" source="8HQ3DXFYilquQqbcVB3s-14" target="T2_0Uxq5rlbPieXqFF-1-2">
          <mxGeometry relative="1" as="geometry">
            <mxPoint x="1430" y="340" as="targetPoint" />
          </mxGeometry>
        </mxCell>
        <mxCell id="T2_0Uxq5rlbPieXqFF-1-3" value="reject" style="edgeLabel;html=1;align=center;verticalAlign=middle;resizable=0;points=[];" vertex="1" connectable="0" parent="T2_0Uxq5rlbPieXqFF-1-1">
          <mxGeometry x="-0.3204" y="1" relative="1" as="geometry">
            <mxPoint as="offset" />
          </mxGeometry>
        </mxCell>
        <mxCell id="T2_0Uxq5rlbPieXqFF-1-6" style="edgeStyle=orthogonalEdgeStyle;rounded=0;orthogonalLoop=1;jettySize=auto;html=1;exitX=0.5;exitY=1;exitDx=0;exitDy=0;entryX=0;entryY=0.5;entryDx=0;entryDy=0;" edge="1" parent="N9EPF0uowiHp0taxYQrZ-1" source="8HQ3DXFYilquQqbcVB3s-14" target="T2_0Uxq5rlbPieXqFF-1-2">
          <mxGeometry relative="1" as="geometry">
            <mxPoint x="1400" y="350" as="targetPoint" />
          </mxGeometry>
        </mxCell>
        <mxCell id="T2_0Uxq5rlbPieXqFF-1-7" value="bad" style="edgeLabel;html=1;align=center;verticalAlign=middle;resizable=0;points=[];" vertex="1" connectable="0" parent="T2_0Uxq5rlbPieXqFF-1-6">
          <mxGeometry x="0.2352" y="-1" relative="1" as="geometry">
            <mxPoint x="-6" y="-21" as="offset" />
          </mxGeometry>
        </mxCell>
        <mxCell id="T2_0Uxq5rlbPieXqFF-1-8" style="edgeStyle=orthogonalEdgeStyle;rounded=0;orthogonalLoop=1;jettySize=auto;html=1;exitX=0.25;exitY=1;exitDx=0;exitDy=0;entryX=0;entryY=0.75;entryDx=0;entryDy=0;" edge="1" parent="N9EPF0uowiHp0taxYQrZ-1" source="8HQ3DXFYilquQqbcVB3s-14" target="T2_0Uxq5rlbPieXqFF-1-2">
          <mxGeometry relative="1" as="geometry">
            <mxPoint x="1350" y="440" as="targetPoint" />
          </mxGeometry>
        </mxCell>
        <mxCell id="T2_0Uxq5rlbPieXqFF-1-9" value="not ready" style="edgeLabel;html=1;align=center;verticalAlign=middle;resizable=0;points=[];" vertex="1" connectable="0" parent="T2_0Uxq5rlbPieXqFF-1-8">
          <mxGeometry x="-0.3417" y="-1" relative="1" as="geometry">
            <mxPoint x="-19" as="offset" />
          </mxGeometry>
        </mxCell>
        <mxCell id="8HQ3DXFYilquQqbcVB3s-14" value="validate status" style="rounded=1;whiteSpace=wrap;html=1;fillColor=none;align=center;verticalAlign=middle;" vertex="1" parent="N9EPF0uowiHp0taxYQrZ-1">
          <mxGeometry x="1360" y="230" width="80" height="60" as="geometry" />
        </mxCell>
        <mxCell id="8HQ3DXFYilquQqbcVB3s-20" style="edgeStyle=orthogonalEdgeStyle;rounded=0;orthogonalLoop=1;jettySize=auto;html=1;exitX=1;exitY=0.5;exitDx=0;exitDy=0;entryX=0;entryY=0.5;entryDx=0;entryDy=0;" edge="1" parent="N9EPF0uowiHp0taxYQrZ-1" source="8HQ3DXFYilquQqbcVB3s-17" target="fC-9AGT-STw9Ydtaq8Hk-7">
          <mxGeometry relative="1" as="geometry" />
        </mxCell>
        <mxCell id="T2_0Uxq5rlbPieXqFF-1-17" style="edgeStyle=orthogonalEdgeStyle;rounded=0;orthogonalLoop=1;jettySize=auto;html=1;exitX=0.5;exitY=0;exitDx=0;exitDy=0;entryX=0.792;entryY=1.017;entryDx=0;entryDy=0;entryPerimeter=0;" edge="1" parent="N9EPF0uowiHp0taxYQrZ-1" source="8HQ3DXFYilquQqbcVB3s-17" target="8HQ3DXFYilquQqbcVB3s-29">
          <mxGeometry relative="1" as="geometry" />
        </mxCell>
        <mxCell id="8HQ3DXFYilquQqbcVB3s-17" value="look for a pending command that matches" style="rounded=1;whiteSpace=wrap;html=1;fillColor=none;align=center;verticalAlign=middle;" vertex="1" parent="N9EPF0uowiHp0taxYQrZ-1">
          <mxGeometry x="1470" y="230" width="80" height="60" as="geometry" />
        </mxCell>
        <mxCell id="8HQ3DXFYilquQqbcVB3s-24" value="resolve future with value" style="rounded=1;whiteSpace=wrap;html=1;fillColor=none;align=center;verticalAlign=middle;" vertex="1" parent="N9EPF0uowiHp0taxYQrZ-1">
          <mxGeometry x="1890" y="200" width="100" height="60" as="geometry" />
        </mxCell>
        <mxCell id="8HQ3DXFYilquQqbcVB3s-30" style="edgeStyle=orthogonalEdgeStyle;rounded=0;orthogonalLoop=1;jettySize=auto;html=1;exitX=0.5;exitY=0;exitDx=0;exitDy=0;entryX=0;entryY=0.75;entryDx=0;entryDy=0;" edge="1" parent="N9EPF0uowiHp0taxYQrZ-1" source="8HQ3DXFYilquQqbcVB3s-27" target="8HQ3DXFYilquQqbcVB3s-29">
          <mxGeometry relative="1" as="geometry" />
        </mxCell>
        <mxCell id="8HQ3DXFYilquQqbcVB3s-27" value="make future" style="rounded=1;whiteSpace=wrap;html=1;fillColor=none;align=center;verticalAlign=middle;" vertex="1" parent="N9EPF0uowiHp0taxYQrZ-1">
          <mxGeometry x="820" y="230" width="60" height="60" as="geometry" />
        </mxCell>
        <mxCell id="8HQ3DXFYilquQqbcVB3s-52" style="edgeStyle=orthogonalEdgeStyle;rounded=0;orthogonalLoop=1;jettySize=auto;html=1;exitX=1;exitY=0.5;exitDx=0;exitDy=0;entryX=0.5;entryY=0;entryDx=0;entryDy=0;" edge="1" parent="N9EPF0uowiHp0taxYQrZ-1" source="8HQ3DXFYilquQqbcVB3s-29" target="8HQ3DXFYilquQqbcVB3s-47">
          <mxGeometry relative="1" as="geometry" />
        </mxCell>
        <mxCell id="8HQ3DXFYilquQqbcVB3s-29" value="List storing all pending commands" style="rounded=0;whiteSpace=wrap;html=1;" vertex="1" parent="N9EPF0uowiHp0taxYQrZ-1">
          <mxGeometry x="915" y="140" width="750" height="60" as="geometry" />
        </mxCell>
        <mxCell id="8HQ3DXFYilquQqbcVB3s-38" value="CsafeLongCommandFactory" style="rounded=1;whiteSpace=wrap;html=1;fillColor=none;align=center;verticalAlign=middle;" vertex="1" parent="N9EPF0uowiHp0taxYQrZ-1">
          <mxGeometry x="10" y="120" width="180" height="60" as="geometry" />
        </mxCell>
        <mxCell id="8HQ3DXFYilquQqbcVB3s-39" value="&lt;span style=&quot;color: rgb(0 , 0 , 0) ; font-family: &amp;#34;helvetica&amp;#34; ; font-size: 12px ; font-style: normal ; font-weight: 400 ; letter-spacing: normal ; text-align: center ; text-indent: 0px ; text-transform: none ; word-spacing: 0px ; background-color: rgb(248 , 249 , 250) ; display: inline ; float: none&quot;&gt;build/create(ParameterValue)&lt;/span&gt;" style="edgeStyle=orthogonalEdgeStyle;rounded=0;orthogonalLoop=1;jettySize=auto;html=1;exitX=1;exitY=0.5;exitDx=0;exitDy=0;entryX=0;entryY=0.5;entryDx=0;entryDy=0;" edge="1" parent="N9EPF0uowiHp0taxYQrZ-1" source="8HQ3DXFYilquQqbcVB3s-38" target="8HQ3DXFYilquQqbcVB3s-40">
          <mxGeometry relative="1" as="geometry">
            <mxPoint x="200" y="75" as="sourcePoint" />
            <mxPoint x="390" y="150" as="targetPoint" />
            <Array as="points" />
          </mxGeometry>
        </mxCell>
        <mxCell id="8HQ3DXFYilquQqbcVB3s-40" value="make&amp;nbsp;&lt;span&gt;CsafeCommand&lt;/span&gt;" style="rounded=1;whiteSpace=wrap;html=1;fillColor=none;align=center;verticalAlign=middle;" vertex="1" parent="N9EPF0uowiHp0taxYQrZ-1">
          <mxGeometry x="400" y="120" width="130" height="60" as="geometry" />
        </mxCell>
        <mxCell id="8HQ3DXFYilquQqbcVB3s-44" value="" style="edgeStyle=orthogonalEdgeStyle;rounded=0;orthogonalLoop=1;jettySize=auto;html=1;" edge="1" parent="N9EPF0uowiHp0taxYQrZ-1" source="8HQ3DXFYilquQqbcVB3s-41" target="8HQ3DXFYilquQqbcVB3s-43">
          <mxGeometry relative="1" as="geometry" />
        </mxCell>
        <mxCell id="8HQ3DXFYilquQqbcVB3s-41" value="..." style="text;html=1;align=center;verticalAlign=middle;resizable=0;points=[];autosize=1;strokeColor=none;fillColor=none;" vertex="1" parent="N9EPF0uowiHp0taxYQrZ-1">
          <mxGeometry x="450" y="190" width="30" height="20" as="geometry" />
        </mxCell>
        <mxCell id="8HQ3DXFYilquQqbcVB3s-42" value="..." style="text;html=1;align=center;verticalAlign=middle;resizable=0;points=[];autosize=1;strokeColor=none;fillColor=none;" vertex="1" parent="N9EPF0uowiHp0taxYQrZ-1">
          <mxGeometry x="450" y="100" width="30" height="20" as="geometry" />
        </mxCell>
        <mxCell id="T2_0Uxq5rlbPieXqFF-1-15" style="edgeStyle=orthogonalEdgeStyle;rounded=0;orthogonalLoop=1;jettySize=auto;html=1;exitX=1;exitY=0.5;exitDx=0;exitDy=0;entryX=0;entryY=0.5;entryDx=0;entryDy=0;" edge="1" parent="N9EPF0uowiHp0taxYQrZ-1" source="8HQ3DXFYilquQqbcVB3s-43" target="T2_0Uxq5rlbPieXqFF-1-13">
          <mxGeometry relative="1" as="geometry" />
        </mxCell>
        <mxCell id="8HQ3DXFYilquQqbcVB3s-43" value="send command(s)" style="rounded=1;whiteSpace=wrap;html=1;fillColor=none;align=center;verticalAlign=middle;" vertex="1" parent="N9EPF0uowiHp0taxYQrZ-1">
          <mxGeometry x="400" y="230" width="130" height="60" as="geometry" />
        </mxCell>
        <mxCell id="8HQ3DXFYilquQqbcVB3s-50" value="" style="edgeStyle=orthogonalEdgeStyle;rounded=0;orthogonalLoop=1;jettySize=auto;html=1;entryX=0;entryY=0.5;entryDx=0;entryDy=0;" edge="1" parent="N9EPF0uowiHp0taxYQrZ-1" source="8HQ3DXFYilquQqbcVB3s-47" target="8HQ3DXFYilquQqbcVB3s-24">
          <mxGeometry relative="1" as="geometry">
            <mxPoint x="1870" y="230" as="targetPoint" />
          </mxGeometry>
        </mxCell>
        <mxCell id="8HQ3DXFYilquQqbcVB3s-47" value="remove command from list" style="rounded=1;whiteSpace=wrap;html=1;fillColor=none;align=center;verticalAlign=middle;" vertex="1" parent="N9EPF0uowiHp0taxYQrZ-1">
          <mxGeometry x="1770" y="200" width="80" height="60" as="geometry" />
        </mxCell>
        <mxCell id="8HQ3DXFYilquQqbcVB3s-53" value="update status of server" style="rounded=1;whiteSpace=wrap;html=1;fillColor=none;align=center;verticalAlign=middle;" vertex="1" parent="N9EPF0uowiHp0taxYQrZ-1">
          <mxGeometry x="1800" y="290" width="100" height="70" as="geometry" />
        </mxCell>
        <mxCell id="T2_0Uxq5rlbPieXqFF-1-2" value="Resolve Future with error" style="rounded=1;whiteSpace=wrap;html=1;fillColor=none;align=center;verticalAlign=middle;" vertex="1" parent="N9EPF0uowiHp0taxYQrZ-1">
          <mxGeometry x="1460" y="340" width="80" height="60" as="geometry" />
        </mxCell>
        <mxCell id="T2_0Uxq5rlbPieXqFF-1-12" value="drop frame" style="text;html=1;align=center;verticalAlign=middle;resizable=0;points=[];autosize=1;strokeColor=none;fillColor=none;" vertex="1" parent="N9EPF0uowiHp0taxYQrZ-1">
          <mxGeometry x="1255" y="330" width="70" height="20" as="geometry" />
        </mxCell>
        <mxCell id="T2_0Uxq5rlbPieXqFF-1-16" style="edgeStyle=orthogonalEdgeStyle;rounded=0;orthogonalLoop=1;jettySize=auto;html=1;exitX=1;exitY=0.5;exitDx=0;exitDy=0;entryX=0;entryY=0.5;entryDx=0;entryDy=0;" edge="1" parent="N9EPF0uowiHp0taxYQrZ-1" source="T2_0Uxq5rlbPieXqFF-1-13" target="8HQ3DXFYilquQqbcVB3s-27">
          <mxGeometry relative="1" as="geometry" />
        </mxCell>
        <mxCell id="T2_0Uxq5rlbPieXqFF-1-13" value="add Command to a CommandFrame" style="rounded=1;whiteSpace=wrap;html=1;fillColor=none;align=center;verticalAlign=middle;" vertex="1" parent="N9EPF0uowiHp0taxYQrZ-1">
          <mxGeometry x="690" y="230" width="90" height="60" as="geometry" />
        </mxCell>
      </root>
    </mxGraphModel>
  </diagram>
</mxfile>
